<?xml version="1.0" encoding="UTF-8"?>
<svg width="65px" height="26px" viewBox="0 0 65 26" version="1.1" xmlns="http://www.w3.org/2000/svg" xmlns:xlink="http://www.w3.org/1999/xlink">
    <!-- Generator: Sketch 49 (51002) - http://www.bohemiancoding.com/sketch -->
    <title>Skyfish-logo-color</title>
    <desc>Created with Sketch.</desc>
    <defs>
        <path d="M1.29697674,25.8633725 C0.988100775,25.8633725 0.67872093,25.7563137 0.430310078,25.5376078 C-0.102790698,25.0685882 -0.146124031,24.2625882 0.332054264,23.7410588 C0.332054264,23.7410588 4.50515504,19.1849412 5.56581395,18.0266667 C11.4898837,11.5587843 15.0779845,7.78317647 19.7942636,4.98639216 C25.285,1.7287451 31.3914729,0 37.6808527,0 C47.6233333,0 57.1319767,4.33231373 64.4537984,12.1975686 C64.9370155,12.716549 64.8997287,13.5215294 64.3716667,13.9951373 C63.8425969,14.4692549 63.0227907,14.432549 62.5395736,13.9145882 C55.7140698,6.58258824 46.8856589,2.54494118 37.6808527,2.54494118 C32.6743411,2.54494118 27.7867442,3.73584314 23.2715116,5.99886275 C17.8437597,8.71968627 15.0905814,11.4359216 7.60096899,19.6131765 C7.13790698,20.1194118 2.2624031,25.4427843 2.2624031,25.4427843 C2.00593023,25.7216471 1.6522093,25.8633725 1.29697674,25.8633725 Z M8.19352713,10.322 C7.8377907,10.322 7.48457364,10.1792549 7.2275969,9.90039216 L0.332054264,2.37160784 C-0.146124031,1.84854902 -0.102790698,1.04407843 0.430310078,0.574039216 C0.964922481,0.105019608 1.78271318,0.149372549 2.2624031,0.670392157 L9.15744186,8.19866667 C9.63612403,8.72121569 9.59228682,9.52619608 9.05968992,9.99623529 C8.81127907,10.2144314 8.50189922,10.322 8.19352713,10.322 Z M57.8716667,20.4242745 C57.5093798,20.4242745 57.1501163,20.2764314 56.8931395,19.9883922 C51.6029457,14.0313333 44.7789535,10.7512549 37.6808527,10.7512549 C30.7324031,10.7512549 24.0197674,13.9094902 18.7789535,19.6427451 C18.3007752,20.1663137 17.4814729,20.2121961 16.9478682,19.7411373 C16.4142636,19.2721176 16.3694186,18.4671373 16.8475969,17.9456078 C22.5882558,11.6648235 29.9856589,8.20631373 37.6808527,8.20631373 C45.540814,8.20631373 53.0586434,11.7968627 58.8486822,18.3172549 C59.3193023,18.8454118 59.2628682,19.6498824 58.7227132,20.1112549 C58.4768217,20.3212941 58.1744961,20.4242745 57.8716667,20.4242745 Z M25.3877907,24.2365882 C25.0461628,24.2365882 24.7065504,24.1055686 24.452093,23.844549 C23.9562791,23.3372941 23.9724031,22.5312941 24.4893798,22.0459608 C28.4024806,18.361098 32.9640698,16.4126275 37.6808527,16.4126275 C42.1376357,16.4126275 46.487093,18.1683922 50.261124,21.4897647 C50.7947287,21.9587843 50.8385659,22.7637647 50.3603876,23.2863137 C49.8832171,23.8098824 49.0644186,23.8552549 48.5287984,23.3831765 C45.24,20.488 41.4886434,18.9575686 37.6808527,18.9575686 C33.6468217,18.9575686 29.7060078,20.6598039 26.2862016,23.8807451 C26.0342636,24.1193333 25.7112791,24.2365882 25.3877907,24.2365882 Z" id="path-1"></path>
    </defs>
    <g id="Page-1" stroke="none" stroke-width="1" fill="none" fill-rule="evenodd">
        <g id="Skyfish-Sing-up-landing-page-v.1---mobile" transform="translate(-128.000000, -60.000000)">
            <g id="Skyfish-logo-color" transform="translate(128.000000, 60.000000)">
                <g id="Group-6">
                    <g id="Fill-4-Clipped">
                        <mask id="mask-2" fill="white">
                            <use xlink:href="#path-1"></use>
                        </mask>
                        <g id="path-3"></g>
                        <polygon id="Fill-4" fill="#47A9E7" fill-rule="nonzero" mask="url(#mask-2)" points="-0.0100775194 25.9082353 64.8085271 25.9082353 64.8085271 -0.0305882353 -0.0100775194 -0.0305882353"></polygon>
                    </g>
                </g>
            </g>
        </g>
    </g>
</svg>
